<?xml version="1.0" encoding="UTF-8" standalone="no"?>
<!-- Created with Inkscape (http://www.inkscape.org/) -->

<svg
   xmlns:dc="http://purl.org/dc/elements/1.1/"
   xmlns:cc="http://creativecommons.org/ns#"
   xmlns:rdf="http://www.w3.org/1999/02/22-rdf-syntax-ns#"
   xmlns:svg="http://www.w3.org/2000/svg"
   xmlns="http://www.w3.org/2000/svg"
   xmlns:sodipodi="http://sodipodi.sourceforge.net/DTD/sodipodi-0.dtd"
   xmlns:inkscape="http://www.inkscape.org/namespaces/inkscape"
   width="5.1428227mm"
   height="5.1428227mm"
   viewBox="0 0 18.2226 18.222599"
   id="svg8276"
   version="1.1"
   inkscape:version="0.91 r13725"
   sodipodi:docname="dribbble.svg">
  <defs
     id="defs8278" />
  <sodipodi:namedview
     id="base"
     pagecolor="#ffffff"
     bordercolor="#666666"
     borderopacity="1.0"
     inkscape:pageopacity="0.0"
     inkscape:pageshadow="2"
     inkscape:zoom="2.8"
     inkscape:cx="-52.134489"
     inkscape:cy="4.2940314"
     inkscape:document-units="px"
     inkscape:current-layer="layer1"
     showgrid="false"
     fit-margin-top="0"
     fit-margin-left="0"
     fit-margin-right="0"
     fit-margin-bottom="0"
     inkscape:window-width="1440"
     inkscape:window-height="838"
     inkscape:window-x="-8"
     inkscape:window-y="-8"
     inkscape:window-maximized="1" />
  <metadata
     id="metadata8281">
    <rdf:RDF>
      <cc:Work
         rdf:about="">
        <dc:format>image/svg+xml</dc:format>
        <dc:type
           rdf:resource="http://purl.org/dc/dcmitype/StillImage" />
        <dc:title></dc:title>
      </cc:Work>
    </rdf:RDF>
  </metadata>
  <g
     inkscape:label="Layer 1"
     inkscape:groupmode="layer"
     id="layer1"
     transform="translate(-562.06058,-408.49057)">
    <path
       id="path9362"
       d="m 571.17188,426.71317 c -5.0243,0 -9.1113,-4.088 -9.1113,-9.1118 0,-5.0232 4.087,-9.1108 9.1113,-9.1108 5.0237,0 9.1113,4.0876 9.1113,9.1108 0,5.0238 -4.0876,9.1118 -9.1113,9.1118 z m 7.6837,-7.8641 c -0.266,-0.085 -2.4083,-0.7232 -4.8478,-0.3325 1.0182,2.7959 1.4328,5.0744 1.5114,5.5486 1.7465,-1.1805 2.9896,-3.0506 3.3364,-5.2161 z m -4.6434,5.9286 c -0.1162,-0.6828 -0.5683,-3.0625 -1.6605,-5.9013 l -0.052,0.017 c -4.3888,1.5291 -5.965,4.5734 -6.1051,4.8598 1.3194,1.029 2.9777,1.6428 4.7772,1.6428 1.0774,0 2.1052,-0.2203 3.0403,-0.6189 z m -8.822,-1.9601 c 0.1765,-0.3018 2.312,-3.8387 6.3261,-5.1359 0.1008,-0.034 0.2033,-0.064 0.3058,-0.093 -0.1953,-0.4424 -0.4077,-0.8849 -0.631,-1.3205 -3.8859,1.1628 -7.6575,1.115 -7.9974,1.1076 -0.01,0.08 -0.01,0.1577 -0.01,0.238 0,1.9983 0.7574,3.8228 2.0011,5.2037 z m -1.8365,-6.7982 c 0.3474,0.01 3.554,0.02 7.1945,-0.9475 -1.2892,-2.2927 -2.6798,-4.2198 -2.8854,-4.5006 -2.1771,1.0262 -3.8045,3.033 -4.3091,5.448 z m 5.7942,-5.9724 c 0.2153,0.2875 1.6287,2.214 2.9037,4.5556 2.7681,-1.0364 3.9395,-2.6115 4.0796,-2.8108 -1.3746,-1.2187 -3.1816,-1.9606 -5.1593,-1.9606 -0.6287,0 -1.2391,0.075 -1.824,0.2158 z m 7.8477,2.6451 c -0.1639,0.2221 -1.4681,1.8935 -4.3455,3.0688 0.1811,0.3707 0.3542,0.7471 0.5165,1.127 0.057,0.1338 0.1128,0.2682 0.1675,0.402 2.5892,-0.3257 5.1621,0.1965 5.4194,0.2494 -0.017,-1.8365 -0.6742,-3.5232 -1.7579,-4.8472 z"
       style="fill:#2cbad3;fill-opacity:1"
       inkscape:connector-curvature="0" />
  </g>
</svg>
