<?xml version="1.0" encoding="UTF-8" standalone="no"?>
<!-- Created with Inkscape (http://www.inkscape.org/) -->

<svg
   xmlns:dc="http://purl.org/dc/elements/1.1/"
   xmlns:cc="http://creativecommons.org/ns#"
   xmlns:rdf="http://www.w3.org/1999/02/22-rdf-syntax-ns#"
   xmlns:svg="http://www.w3.org/2000/svg"
   xmlns="http://www.w3.org/2000/svg"
   xmlns:sodipodi="http://sodipodi.sourceforge.net/DTD/sodipodi-0.dtd"
   xmlns:inkscape="http://www.inkscape.org/namespaces/inkscape"
   width="5.1428509mm"
   height="5.1428227mm"
   viewBox="0 0 18.2227 18.222599"
   id="svg8276"
   version="1.1"
   inkscape:version="0.91 r13725"
   sodipodi:docname="pinterest.svg">
  <defs
     id="defs8278" />
  <sodipodi:namedview
     id="base"
     pagecolor="#ffffff"
     bordercolor="#666666"
     borderopacity="1.0"
     inkscape:pageopacity="0.0"
     inkscape:pageshadow="2"
     inkscape:zoom="2.8"
     inkscape:cx="9.1113512"
     inkscape:cy="9.111301"
     inkscape:document-units="px"
     inkscape:current-layer="layer1"
     showgrid="false"
     fit-margin-top="0"
     fit-margin-left="0"
     fit-margin-right="0"
     fit-margin-bottom="0"
     inkscape:window-width="1440"
     inkscape:window-height="838"
     inkscape:window-x="-8"
     inkscape:window-y="-8"
     inkscape:window-maximized="1" />
  <metadata
     id="metadata8281">
    <rdf:RDF>
      <cc:Work
         rdf:about="">
        <dc:format>image/svg+xml</dc:format>
        <dc:type
           rdf:resource="http://purl.org/dc/dcmitype/StillImage" />
        <dc:title></dc:title>
      </cc:Work>
    </rdf:RDF>
  </metadata>
  <g
     inkscape:label="Layer 1"
     inkscape:groupmode="layer"
     id="layer1"
     transform="translate(-500.81474,-413.30784)">
    <path
       id="path9330"
       d="m 509.92634,413.30784 c -5.0319,0 -9.1116,4.0787 -9.1116,9.1116 0,3.7313 2.2432,6.9358 5.4542,8.3443 -0.026,-0.6367 -0.01,-1.4005 0.1583,-2.0915 0.1755,-0.741 1.1723,-4.9662 1.1723,-4.9662 0,0 -0.2917,-0.5815 -0.2917,-1.4404 0,-1.3494 0.7838,-2.3581 1.7584,-2.3581 0.8283,0 1.2287,0.6214 1.2287,1.3671 0,0.8326 -0.532,2.0789 -0.8043,3.2329 -0.2284,0.966 0.4853,1.7543 1.4366,1.7543 1.7264,0 2.889,-2.2163 2.889,-4.8438 0,-1.9964 -1.3448,-3.4904 -3.7908,-3.4904 -2.7637,0 -4.4851,2.0603 -4.4851,4.3625 0,0.794 0.2341,1.3539 0.6003,1.7873 0.1692,0.1994 0.1926,0.2785 0.1305,0.5075 -0.042,0.1686 -0.1424,0.5713 -0.1845,0.7308 -0.061,0.2318 -0.2472,0.3138 -0.4563,0.2279 -1.2731,-0.5184 -1.8655,-1.9127 -1.8655,-3.4802 0,-2.5876 2.1822,-5.6919 6.5125,-5.6919 3.478,0 5.769,2.5176 5.769,5.2197 0,3.5741 -1.9885,6.2443 -4.9175,6.2443 -0.9843,0 -1.9099,-0.532 -2.2255,-1.1346 0,0 -0.5297,2.0995 -0.6408,2.5039 -0.1937,0.7012 -0.5719,1.4046 -0.9171,1.952 0.818,0.242 1.6838,0.3736 2.5809,0.3736 5.0321,0 9.1111,-4.0782 9.1111,-9.111 0,-5.0329 -4.079,-9.1116 -9.1111,-9.1116 z"
       style="fill:#2cbad3;fill-opacity:1"
       inkscape:connector-curvature="0" />
  </g>
</svg>
