<?xml version="1.0" encoding="UTF-8" standalone="no"?>
<!-- Created with Inkscape (http://www.inkscape.org/) -->

<svg
   xmlns:dc="http://purl.org/dc/elements/1.1/"
   xmlns:cc="http://creativecommons.org/ns#"
   xmlns:rdf="http://www.w3.org/1999/02/22-rdf-syntax-ns#"
   xmlns:svg="http://www.w3.org/2000/svg"
   xmlns="http://www.w3.org/2000/svg"
   xmlns:sodipodi="http://sodipodi.sourceforge.net/DTD/sodipodi-0.dtd"
   xmlns:inkscape="http://www.inkscape.org/namespaces/inkscape"
   width="5.1429067mm"
   height="4.1792307mm"
   viewBox="0 0 18.222898 14.808297"
   id="svg8276"
   version="1.1"
   inkscape:version="0.91 r13725"
   sodipodi:docname="twitter.svg">
  <defs
     id="defs8278" />
  <sodipodi:namedview
     id="base"
     pagecolor="#ffffff"
     bordercolor="#666666"
     borderopacity="1.0"
     inkscape:pageopacity="0.0"
     inkscape:pageshadow="2"
     inkscape:zoom="2.8"
     inkscape:cx="-74.905179"
     inkscape:cy="27.540358"
     inkscape:document-units="px"
     inkscape:current-layer="layer1"
     showgrid="false"
     fit-margin-top="0"
     fit-margin-left="0"
     fit-margin-right="0"
     fit-margin-bottom="0"
     inkscape:window-width="1440"
     inkscape:window-height="838"
     inkscape:window-x="-8"
     inkscape:window-y="-8"
     inkscape:window-maximized="1" />
  <metadata
     id="metadata8281">
    <rdf:RDF>
      <cc:Work
         rdf:about="">
        <dc:format>image/svg+xml</dc:format>
        <dc:type
           rdf:resource="http://purl.org/dc/dcmitype/StillImage" />
        <dc:title></dc:title>
      </cc:Work>
    </rdf:RDF>
  </metadata>
  <g
     inkscape:label="Layer 1"
     inkscape:groupmode="layer"
     id="layer1"
     transform="translate(-584.83127,-435.1512)">
    <path
       id="path9328"
       d="m 603.05377,436.9041 c -0.6699,0.2977 -1.3908,0.4987 -2.1473,0.5886 0.7724,-0.4624 1.3646,-1.1947 1.6439,-2.0685 -0.7225,0.4287 -1.5222,0.7398 -2.3741,0.9077 -0.6817,-0.7264 -1.6535,-1.1807 -2.7288,-1.1807 -2.0644,0 -3.7382,1.6738 -3.7382,3.7386 0,0.2926 0.033,0.5779 0.097,0.8519 -3.1072,-0.1561 -5.8622,-1.6442 -7.7062,-3.9062 -0.3218,0.5519 -0.506,1.1941 -0.506,1.8799 0,1.2969 0.6599,2.4413 1.6631,3.1116 -0.6125,-0.019 -1.1893,-0.1879 -1.6934,-0.468 -4e-4,0.016 -4e-4,0.032 -4e-4,0.047 0,1.8111 1.2888,3.3218 2.9992,3.6658 -0.3137,0.085 -0.644,0.131 -0.9851,0.131 -0.2412,0 -0.4753,-0.024 -0.7035,-0.067 0.476,1.4852 1.8565,2.5664 3.4922,2.5964 -1.2794,1.0027 -2.8912,1.6005 -4.643,1.6005 -0.3015,0 -0.5993,-0.017 -0.8919,-0.053 1.655,1.0613 3.6199,1.6798 5.731,1.6798 6.8768,0 10.6369,-5.6965 10.6369,-10.637 0,-0.162 -0.01,-0.3236 -0.01,-0.4842 0.7301,-0.5259 1.3642,-1.1848 1.865,-1.9346 z"
       inkscape:connector-curvature="0"
       style="fill:#2cbad3;fill-opacity:1" />
  </g>
</svg>
